<svg width="48" height="58" viewBox="0 0 48 58" fill="none" xmlns="http://www.w3.org/2000/svg">
<rect width="47.5" height="57.92" fill="black"/>
<path d="M15.4167 52.9167V42.5M32.0833 52.9167V42.5M5 52.9167V42.5C5 32.1458 13.3958 25.8333 23.75 25.8333M23.75 25.8333C34.1042 25.8333 42.5 32.1458 42.5 42.5V52.9167M23.75 25.8333C26.5127 25.8333 29.1622 24.7359 31.1157 22.7824C33.0692 20.8289 34.1667 18.1793 34.1667 15.4167C34.1667 12.654 33.0692 10.0045 31.1157 8.05097C29.1622 6.09747 26.5127 5 23.75 5C20.9873 5 18.3378 6.09747 16.3843 8.05097C14.4308 10.0045 13.3333 12.654 13.3333 15.4167C13.3333 18.1793 14.4308 20.8289 16.3843 22.7824C18.3378 24.7359 20.9873 25.8333 23.75 25.8333Z" stroke="white" stroke-width="4.16667"/>
</svg>
